<svg xmlns="http://www.w3.org/2000/svg" version="1.1" viewBox="0.00 0.00 117.00 110.00" width="117.00" height="110.00">
<g stroke-width="2.00" fill="none" stroke-linecap="butt">
<path stroke="#eff2f9" d="&#10;  M 49.35 0.00&#10;  Q 28.77 3.74 15.82 18.68&#10;  C -1.26 38.38 -2.42 67.43 13.00 88.50&#10;  Q 24.83 104.68 45.50 110.00"/>
<path stroke="#eff2f9" d="&#10;  M 66.89 0.00&#10;  C 90.58 4.14 109.51 22.02 113.41 46.02&#10;  Q 113.61 47.30 113.57 48.56&#10;  Q 113.52 49.71 113.78 50.83&#10;  Q 114.37 53.36 114.24 56.24&#10;  Q 112.99 85.18 89.70 101.69&#10;  Q 81.53 107.48 70.47 110.00"/>
<path stroke="#efeef5" d="&#10;  M 54.82 90.90&#10;  A 0.26 0.25 -54.7 0 1 54.89 91.34&#10;  Q 50.57 94.80 46.02 97.70&#10;  C 44.07 98.94 43.78 100.90 42.16 102.29&#10;  Q 40.06 104.08 37.99 106.03&#10;  Q 37.86 106.16 37.99 106.29&#10;  L 38.24 106.52&#10;  A 0.47 0.46 45.9 0 0 38.86 106.54&#10;  L 44.49 101.77&#10;  Q 44.85 101.46 45.33 101.45&#10;  Q 46.69 101.45 47.89 102.07&#10;  Q 48.77 102.51 49.73 102.80&#10;  Q 58.07 105.30 65.95 106.21&#10;  Q 72.38 106.95 76.52 104.05&#10;  Q 86.08 97.36 99.71 86.44&#10;  C 102.30 84.36 104.69 81.42 105.61 78.37&#10;  Q 108.61 68.36 106.87 55.69&#10;  Q 106.79 55.11 107.25 54.75&#10;  L 112.91 50.35&#10;  Q 112.99 50.29 112.94 50.21&#10;  L 112.74 49.90&#10;  Q 112.58 49.63 112.31 49.80&#10;  L 107.10 53.20&#10;  Q 106.63 53.50 106.07 53.54&#10;  Q 104.62 53.65 103.59 54.63&#10;  Q 99.91 58.11 95.61 61.30&#10;  A 1.21 1.20 -52.0 0 1 94.43 61.45&#10;  L 94.20 61.36&#10;  A 0.35 0.35 0.0 0 1 94.09 60.78&#10;  Q 98.75 56.46 103.56 52.66&#10;  Q 104.07 52.26 104.38 51.69&#10;  Q 105.03 50.51 103.61 49.49&#10;  Q 102.34 48.57 103.46 47.46&#10;  L 108.12 42.84&#10;  Q 108.36 42.60 108.12 42.37&#10;  L 107.89 42.13&#10;  Q 107.79 42.04 107.68 42.13&#10;  L 102.53 46.59&#10;  A 1.19 1.18 -44.4 0 1 100.95 46.58&#10;  Q 94.79 40.95 87.13 37.84&#10;  Q 86.28 37.49 85.86 36.67&#10;  Q 80.11 25.23 70.58 15.54&#10;  Q 68.88 13.81 66.77 12.58&#10;  A 1.57 1.57 0.0 0 0 64.47 13.55&#10;  Q 61.76 24.34 61.25 35.80&#10;  A 1.46 1.44 78.1 0 1 60.46 37.03&#10;  Q 50.65 41.96 42.34 50.42&#10;  Q 41.71 51.06 41.24 51.86&#10;  Q 40.85 52.53 40.09 52.33&#10;  Q 28.24 49.21 16.92 48.81&#10;  A 1.18 1.18 0.0 0 0 15.75 50.35&#10;  C 18.78 59.89 25.49 68.60 32.44 75.99&#10;  Q 33.83 77.46 34.23 79.31&#10;  Q 35.88 86.86 39.00 93.98&#10;  A 0.99 0.98 -25.9 0 1 38.56 95.24&#10;  L 32.48 98.49&#10;  Q 32.16 98.66 32.38 98.94&#10;  L 32.57 99.18&#10;  A 0.28 0.27 57.7 0 0 32.91 99.26&#10;  L 38.81 96.33&#10;  Q 39.28 96.10 39.80 96.21&#10;  Q 41.16 96.49 41.90 97.83&#10;  A 0.95 0.95 0.0 0 0 43.36 98.09&#10;  Q 48.02 94.01 53.52 90.79&#10;  A 0.92 0.91 39.6 0 1 54.32 90.72&#10;  L 54.82 90.90"/>
<path stroke="#efeef5" d="&#10;  M 84.7986 64.0360&#10;  A 9.00 7.06 53.3 0 0 85.0805 52.6008&#10;  A 9.00 7.06 53.3 0 0 74.0414 49.6040&#10;  A 9.00 7.06 53.3 0 0 73.7595 61.0392&#10;  A 9.00 7.06 53.3 0 0 84.7986 64.0360"/>
<path stroke="#efeef5" d="&#10;  M 105.75 58.49&#10;  L 105.33 57.89&#10;  A 0.19 0.19 0.0 0 0 105.06 57.84&#10;  L 97.13 63.39&#10;  A 0.87 0.51 -35.0 0 0 96.71 64.31&#10;  L 96.77 64.39&#10;  A 0.87 0.51 -35.0 0 0 97.78 64.31&#10;  L 105.70 58.76&#10;  A 0.19 0.19 0.0 0 0 105.75 58.49"/>
<path stroke="#efeef5" d="&#10;  M 60.7042 82.5090&#10;  A 9.05 7.28 52.7 0 0 61.0110 70.8984&#10;  A 9.05 7.28 52.7 0 0 49.7358 68.1110&#10;  A 9.05 7.28 52.7 0 0 49.4290 79.7216&#10;  A 9.05 7.28 52.7 0 0 60.7042 82.5090"/>
<path stroke="#efeef5" d="&#10;  M 77.52 80.53&#10;  Q 77.19 79.17 78.49 79.66&#10;  C 82.11 81.03 84.56 77.78 82.38 74.95&#10;  A 1.38 1.37 52.7 0 0 80.47 74.69&#10;  L 71.73 81.21&#10;  A 0.99 0.98 -41.7 0 0 71.64 82.71&#10;  C 73.20 84.21 76.44 85.29 77.81 82.93&#10;  A 1.03 1.01 -37.2 0 0 77.92 82.17&#10;  L 77.52 80.53"/>
<path stroke="#efeef5" d="&#10;  M 57.3427 94.2364&#10;  A 5.85 0.82 -38.9 0 0 52.2751 97.2718&#10;  A 5.85 0.82 -38.9 0 0 48.2373 101.5836&#10;  A 5.85 0.82 -38.9 0 0 53.3049 98.5482&#10;  A 5.85 0.82 -38.9 0 0 57.3427 94.2364"/>
<path stroke="#efeef5" d="&#10;  M 73.72 53.67&#10;  C 73.20 57.80 80.90 68.04 84.64 61.50&#10;  C 85.55 59.91 85.95 57.77 84.82 56.12&#10;  C 83.24 53.80 80.60 50.01 77.56 50.04&#10;  Q 74.17 50.08 73.72 53.67"/>
<path stroke="#efeef5" d="&#10;  M 59.8079 81.2364&#10;  A 7.36 4.89 53.5 0 0 59.3609 72.4113&#10;  A 7.36 4.89 53.5 0 0 51.0521 69.4036&#10;  A 7.36 4.89 53.5 0 0 51.4991 78.2287&#10;  A 7.36 4.89 53.5 0 0 59.8079 81.2364"/>
</g>
<path fill="#ffffff" d="&#10;  M 0.00 0.00&#10;  L 49.35 0.00&#10;  Q 28.77 3.74 15.82 18.68&#10;  C -1.26 38.38 -2.42 67.43 13.00 88.50&#10;  Q 24.83 104.68 45.50 110.00&#10;  L 0.00 110.00&#10;  L 0.00 0.00&#10;  Z"/>
<path fill="#dee5f2" d="&#10;  M 49.35 0.00&#10;  L 66.89 0.00&#10;  C 90.58 4.14 109.51 22.02 113.41 46.02&#10;  Q 113.61 47.30 113.57 48.56&#10;  Q 113.52 49.71 113.78 50.83&#10;  Q 114.37 53.36 114.24 56.24&#10;  Q 112.99 85.18 89.70 101.69&#10;  Q 81.53 107.48 70.47 110.00&#10;  L 45.50 110.00&#10;  Q 24.83 104.68 13.00 88.50&#10;  C -2.42 67.43 -1.26 38.38 15.82 18.68&#10;  Q 28.77 3.74 49.35 0.00&#10;  Z&#10;  M 54.82 90.90&#10;  A 0.26 0.25 -54.7 0 1 54.89 91.34&#10;  Q 50.57 94.80 46.02 97.70&#10;  C 44.07 98.94 43.78 100.90 42.16 102.29&#10;  Q 40.06 104.08 37.99 106.03&#10;  Q 37.86 106.16 37.99 106.29&#10;  L 38.24 106.52&#10;  A 0.47 0.46 45.9 0 0 38.86 106.54&#10;  L 44.49 101.77&#10;  Q 44.85 101.46 45.33 101.45&#10;  Q 46.69 101.45 47.89 102.07&#10;  Q 48.77 102.51 49.73 102.80&#10;  Q 58.07 105.30 65.95 106.21&#10;  Q 72.38 106.95 76.52 104.05&#10;  Q 86.08 97.36 99.71 86.44&#10;  C 102.30 84.36 104.69 81.42 105.61 78.37&#10;  Q 108.61 68.36 106.87 55.69&#10;  Q 106.79 55.11 107.25 54.75&#10;  L 112.91 50.35&#10;  Q 112.99 50.29 112.94 50.21&#10;  L 112.74 49.90&#10;  Q 112.58 49.63 112.31 49.80&#10;  L 107.10 53.20&#10;  Q 106.63 53.50 106.07 53.54&#10;  Q 104.62 53.65 103.59 54.63&#10;  Q 99.91 58.11 95.61 61.30&#10;  A 1.21 1.20 -52.0 0 1 94.43 61.45&#10;  L 94.20 61.36&#10;  A 0.35 0.35 0.0 0 1 94.09 60.78&#10;  Q 98.75 56.46 103.56 52.66&#10;  Q 104.07 52.26 104.38 51.69&#10;  Q 105.03 50.51 103.61 49.49&#10;  Q 102.34 48.57 103.46 47.46&#10;  L 108.12 42.84&#10;  Q 108.36 42.60 108.12 42.37&#10;  L 107.89 42.13&#10;  Q 107.79 42.04 107.68 42.13&#10;  L 102.53 46.59&#10;  A 1.19 1.18 -44.4 0 1 100.95 46.58&#10;  Q 94.79 40.95 87.13 37.84&#10;  Q 86.28 37.49 85.86 36.67&#10;  Q 80.11 25.23 70.58 15.54&#10;  Q 68.88 13.81 66.77 12.58&#10;  A 1.57 1.57 0.0 0 0 64.47 13.55&#10;  Q 61.76 24.34 61.25 35.80&#10;  A 1.46 1.44 78.1 0 1 60.46 37.03&#10;  Q 50.65 41.96 42.34 50.42&#10;  Q 41.71 51.06 41.24 51.86&#10;  Q 40.85 52.53 40.09 52.33&#10;  Q 28.24 49.21 16.92 48.81&#10;  A 1.18 1.18 0.0 0 0 15.75 50.35&#10;  C 18.78 59.89 25.49 68.60 32.44 75.99&#10;  Q 33.83 77.46 34.23 79.31&#10;  Q 35.88 86.86 39.00 93.98&#10;  A 0.99 0.98 -25.9 0 1 38.56 95.24&#10;  L 32.48 98.49&#10;  Q 32.16 98.66 32.38 98.94&#10;  L 32.57 99.18&#10;  A 0.28 0.27 57.7 0 0 32.91 99.26&#10;  L 38.81 96.33&#10;  Q 39.28 96.10 39.80 96.21&#10;  Q 41.16 96.49 41.90 97.83&#10;  A 0.95 0.95 0.0 0 0 43.36 98.09&#10;  Q 48.02 94.01 53.52 90.79&#10;  A 0.92 0.91 39.6 0 1 54.32 90.72&#10;  L 54.82 90.90&#10;  Z"/>
<path fill="#ffffff" d="&#10;  M 66.89 0.00&#10;  L 117.00 0.00&#10;  L 117.00 110.00&#10;  L 70.47 110.00&#10;  Q 81.53 107.48 89.70 101.69&#10;  Q 112.99 85.18 114.24 56.24&#10;  Q 114.37 53.36 113.78 50.83&#10;  Q 113.52 49.71 113.57 48.56&#10;  Q 113.61 47.30 113.41 46.02&#10;  C 109.51 22.02 90.58 4.14 66.89 0.00&#10;  Z"/>
<path fill="#fff7f7" d="&#10;  M 54.82 90.90&#10;  L 54.32 90.72&#10;  A 0.92 0.91 39.6 0 0 53.52 90.79&#10;  Q 48.02 94.01 43.36 98.09&#10;  A 0.95 0.95 0.0 0 1 41.90 97.83&#10;  Q 41.16 96.49 39.80 96.21&#10;  Q 39.28 96.10 38.81 96.33&#10;  L 32.91 99.26&#10;  A 0.28 0.27 57.7 0 1 32.57 99.18&#10;  L 32.38 98.94&#10;  Q 32.16 98.66 32.48 98.49&#10;  L 38.56 95.24&#10;  A 0.99 0.98 -25.9 0 0 39.00 93.98&#10;  Q 35.88 86.86 34.23 79.31&#10;  Q 33.83 77.46 32.44 75.99&#10;  C 25.49 68.60 18.78 59.89 15.75 50.35&#10;  A 1.18 1.18 0.0 0 1 16.92 48.81&#10;  Q 28.24 49.21 40.09 52.33&#10;  Q 40.85 52.53 41.24 51.86&#10;  Q 41.71 51.06 42.34 50.42&#10;  Q 50.65 41.96 60.46 37.03&#10;  A 1.46 1.44 78.1 0 0 61.25 35.80&#10;  Q 61.76 24.34 64.47 13.55&#10;  A 1.57 1.57 0.0 0 1 66.77 12.58&#10;  Q 68.88 13.81 70.58 15.54&#10;  Q 80.11 25.23 85.86 36.67&#10;  Q 86.28 37.49 87.13 37.84&#10;  Q 94.79 40.95 100.95 46.58&#10;  A 1.19 1.18 -44.4 0 0 102.53 46.59&#10;  L 107.68 42.13&#10;  Q 107.79 42.04 107.89 42.13&#10;  L 108.12 42.37&#10;  Q 108.36 42.60 108.12 42.84&#10;  L 103.46 47.46&#10;  Q 102.34 48.57 103.61 49.49&#10;  Q 105.03 50.51 104.38 51.69&#10;  Q 104.07 52.26 103.56 52.66&#10;  Q 98.75 56.46 94.09 60.78&#10;  A 0.35 0.35 0.0 0 0 94.20 61.36&#10;  L 94.43 61.45&#10;  A 1.21 1.20 -52.0 0 0 95.61 61.30&#10;  Q 99.91 58.11 103.59 54.63&#10;  Q 104.62 53.65 106.07 53.54&#10;  Q 106.63 53.50 107.10 53.20&#10;  L 112.31 49.80&#10;  Q 112.58 49.63 112.74 49.90&#10;  L 112.94 50.21&#10;  Q 112.99 50.29 112.91 50.35&#10;  L 107.25 54.75&#10;  Q 106.79 55.11 106.87 55.69&#10;  Q 108.61 68.36 105.61 78.37&#10;  C 104.69 81.42 102.30 84.36 99.71 86.44&#10;  Q 86.08 97.36 76.52 104.05&#10;  Q 72.38 106.95 65.95 106.21&#10;  Q 58.07 105.30 49.73 102.80&#10;  Q 48.77 102.51 47.89 102.07&#10;  Q 46.69 101.45 45.33 101.45&#10;  Q 44.85 101.46 44.49 101.77&#10;  L 38.86 106.54&#10;  A 0.47 0.46 45.9 0 1 38.24 106.52&#10;  L 37.99 106.29&#10;  Q 37.86 106.16 37.99 106.03&#10;  Q 40.06 104.08 42.16 102.29&#10;  C 43.78 100.90 44.07 98.94 46.02 97.70&#10;  Q 50.57 94.80 54.89 91.34&#10;  A 0.26 0.25 -54.7 0 0 54.82 90.90&#10;  Z&#10;  M 84.7986 64.0360&#10;  A 9.00 7.06 53.3 0 0 85.0805 52.6008&#10;  A 9.00 7.06 53.3 0 0 74.0414 49.6040&#10;  A 9.00 7.06 53.3 0 0 73.7595 61.0392&#10;  A 9.00 7.06 53.3 0 0 84.7986 64.0360&#10;  Z&#10;  M 105.75 58.49&#10;  L 105.33 57.89&#10;  A 0.19 0.19 0.0 0 0 105.06 57.84&#10;  L 97.13 63.39&#10;  A 0.87 0.51 -35.0 0 0 96.71 64.31&#10;  L 96.77 64.39&#10;  A 0.87 0.51 -35.0 0 0 97.78 64.31&#10;  L 105.70 58.76&#10;  A 0.19 0.19 0.0 0 0 105.75 58.49&#10;  Z&#10;  M 60.7042 82.5090&#10;  A 9.05 7.28 52.7 0 0 61.0110 70.8984&#10;  A 9.05 7.28 52.7 0 0 49.7358 68.1110&#10;  A 9.05 7.28 52.7 0 0 49.4290 79.7216&#10;  A 9.05 7.28 52.7 0 0 60.7042 82.5090&#10;  Z&#10;  M 77.52 80.53&#10;  Q 77.19 79.17 78.49 79.66&#10;  C 82.11 81.03 84.56 77.78 82.38 74.95&#10;  A 1.38 1.37 52.7 0 0 80.47 74.69&#10;  L 71.73 81.21&#10;  A 0.99 0.98 -41.7 0 0 71.64 82.71&#10;  C 73.20 84.21 76.44 85.29 77.81 82.93&#10;  A 1.03 1.01 -37.2 0 0 77.92 82.17&#10;  L 77.52 80.53&#10;  Z&#10;  M 57.3427 94.2364&#10;  A 5.85 0.82 -38.9 0 0 52.2751 97.2718&#10;  A 5.85 0.82 -38.9 0 0 48.2373 101.5836&#10;  A 5.85 0.82 -38.9 0 0 53.3049 98.5482&#10;  A 5.85 0.82 -38.9 0 0 57.3427 94.2364&#10;  Z"/>
<path fill="#dee5f2" d="&#10;  M 84.7986 64.0360&#10;  A 9.00 7.06 53.3 0 1 73.7595 61.0392&#10;  A 9.00 7.06 53.3 0 1 74.0414 49.6040&#10;  A 9.00 7.06 53.3 0 1 85.0805 52.6008&#10;  A 9.00 7.06 53.3 0 1 84.7986 64.0360&#10;  Z&#10;  M 73.72 53.67&#10;  C 73.20 57.80 80.90 68.04 84.64 61.50&#10;  C 85.55 59.91 85.95 57.77 84.82 56.12&#10;  C 83.24 53.80 80.60 50.01 77.56 50.04&#10;  Q 74.17 50.08 73.72 53.67&#10;  Z"/>
<path fill="#fff7f7" d="&#10;  M 84.64 61.50&#10;  C 80.90 68.04 73.20 57.80 73.72 53.67&#10;  Q 74.17 50.08 77.56 50.04&#10;  C 80.60 50.01 83.24 53.80 84.82 56.12&#10;  C 85.95 57.77 85.55 59.91 84.64 61.50&#10;  Z"/>
<path fill="#dee5f2" d="&#10;  M 105.75 58.49&#10;  A 0.19 0.19 0.0 0 1 105.70 58.76&#10;  L 97.78 64.31&#10;  A 0.87 0.51 -35.0 0 1 96.77 64.39&#10;  L 96.71 64.31&#10;  A 0.87 0.51 -35.0 0 1 97.13 63.39&#10;  L 105.06 57.84&#10;  A 0.19 0.19 0.0 0 1 105.33 57.89&#10;  L 105.75 58.49&#10;  Z"/>
<path fill="#dee5f2" d="&#10;  M 60.7042 82.5090&#10;  A 9.05 7.28 52.7 0 1 49.4290 79.7216&#10;  A 9.05 7.28 52.7 0 1 49.7358 68.1110&#10;  A 9.05 7.28 52.7 0 1 61.0110 70.8984&#10;  A 9.05 7.28 52.7 0 1 60.7042 82.5090&#10;  Z&#10;  M 59.8079 81.2364&#10;  A 7.36 4.89 53.5 0 0 59.3609 72.4113&#10;  A 7.36 4.89 53.5 0 0 51.0521 69.4036&#10;  A 7.36 4.89 53.5 0 0 51.4991 78.2287&#10;  A 7.36 4.89 53.5 0 0 59.8079 81.2364&#10;  Z"/>
<ellipse fill="#fff7f7" cx="0.00" cy="0.00" transform="translate(55.43,75.32) rotate(53.5)" rx="7.36" ry="4.89"/>
<path fill="#dee5f2" d="&#10;  M 77.52 80.53&#10;  L 77.92 82.17&#10;  A 1.03 1.01 -37.2 0 1 77.81 82.93&#10;  C 76.44 85.29 73.20 84.21 71.64 82.71&#10;  A 0.99 0.98 -41.7 0 1 71.73 81.21&#10;  L 80.47 74.69&#10;  A 1.38 1.37 52.7 0 1 82.38 74.95&#10;  C 84.56 77.78 82.11 81.03 78.49 79.66&#10;  Q 77.19 79.17 77.52 80.53&#10;  Z"/>
<ellipse fill="#dee5f2" cx="0.00" cy="0.00" transform="translate(52.79,97.91) rotate(-38.9)" rx="5.85" ry="0.82"/>
</svg>