<svg xmlns="http://www.w3.org/2000/svg" version="1.1" viewBox="0.00 0.00 883.00 283.00" width="883.00" height="283.00">
<g stroke-width="2.00" fill="none" stroke-linecap="butt">
<path stroke="#eff2f9" d="&#10;  M 279.41 145.15&#10;  A 86.10 86.10 0.0 0 0 193.31 59.05&#10;  A 86.10 86.10 0.0 0 0 107.21 145.15&#10;  A 86.10 86.10 0.0 0 0 193.31 231.25&#10;  A 86.10 86.10 0.0 0 0 279.41 145.15"/>
<path stroke="#c7c4c4" d="&#10;  M 756.97 138.97&#10;  A 0.60 0.60 0.0 0 1 756.09 139.55&#10;  Q 752.43 137.54 749.00 135.80&#10;  C 743.77 133.16 736.27 133.95 730.99 136.87&#10;  Q 726.56 139.33 722.91 144.05&#10;  Q 719.72 148.18 718.54 153.60&#10;  Q 715.90 165.75 719.39 177.37&#10;  C 723.14 189.89 735.35 196.11 747.70 191.32&#10;  C 751.01 190.03 753.73 187.65 756.98 186.06&#10;  A 0.43 0.43 0.0 0 1 757.59 186.48&#10;  L 757.43 188.98&#10;  Q 757.35 190.22 758.57 190.46&#10;  Q 761.15 190.98 764.34 190.49&#10;  Q 765.39 190.33 765.39 189.27&#10;  L 765.37 111.17&#10;  A 1.20 1.19 89.8 0 0 764.17 109.97&#10;  L 757.08 110.06&#10;  A 1.04 1.04 0.0 0 0 756.05 111.13&#10;  Q 756.31 122.35 756.30 132.91&#10;  C 756.29 134.97 756.79 136.95 756.97 138.97"/>
<path stroke="#d6f3f7" d="&#10;  M 334.54 110.83&#10;  C 321.72 112.57 312.78 120.77 308.36 132.95&#10;  C 301.74 151.23 305.67 181.14 326.93 188.68&#10;  Q 345.25 195.19 360.08 180.87&#10;  Q 360.96 180.02 360.16 179.09&#10;  L 357.17 175.63&#10;  Q 355.40 173.58 353.53 175.55&#10;  Q 346.49 182.99 336.70 182.32&#10;  C 325.84 181.57 319.04 173.52 316.61 163.44&#10;  C 312.90 148.07 315.34 120.81 336.75 119.01&#10;  C 340.96 118.66 345.89 119.74 349.30 122.49&#10;  Q 350.84 123.73 352.44 124.82&#10;  Q 354.06 125.91 355.32 124.43&#10;  L 357.91 121.40&#10;  Q 359.19 119.89 357.70 118.60&#10;  Q 346.85 109.16 334.54 110.83"/>
<path stroke="#e7e7e2" d="&#10;  M 481.0550 115.5889&#10;  A 5.33 5.33 0.0 0 0 475.2977 110.7236&#10;  L 473.7033 110.8575&#10;  A 5.33 5.33 0.0 0 0 468.8380 116.6148&#10;  L 468.9250 117.6511&#10;  A 5.33 5.33 0.0 0 0 474.6823 122.5164&#10;  L 476.2767 122.3825&#10;  A 5.33 5.33 0.0 0 0 481.1420 116.6252&#10;  L 481.0550 115.5889"/>
<path stroke="#dbe4eb" d="&#10;  M 556.37 180.19&#10;  A 0.99 0.99 0.0 0 1 555.63 179.33&#10;  Q 555.31 176.21 555.31 173.25&#10;  Q 555.32 144.57 555.28 114.48&#10;  Q 555.28 112.90 553.70 112.91&#10;  L 547.25 112.92&#10;  Q 545.92 112.92 545.92 114.25&#10;  L 545.97 186.31&#10;  A 1.65 1.65 0.0 0 0 547.30 187.93&#10;  Q 549.10 188.28 550.76 188.26&#10;  Q 568.50 188.05 586.16 188.12&#10;  Q 588.26 188.13 588.23 186.03&#10;  L 588.18 182.14&#10;  Q 588.16 180.38 586.39 180.42&#10;  Q 569.28 180.80 557.53 180.36&#10;  Q 556.97 180.34 556.37 180.19"/>
<path stroke="#d1dfe1" d="&#10;  M 442.48 142.36&#10;  A 1.18 1.17 -0.8 0 1 443.63 141.19&#10;  L 455.51 140.94&#10;  Q 457.96 140.89 458.14 138.46&#10;  L 458.22 137.44&#10;  Q 458.43 134.70 455.68 134.71&#10;  L 444.68 134.77&#10;  A 1.87 1.87 0.0 0 1 442.80 132.93&#10;  L 442.66 121.13&#10;  Q 442.63 118.70 440.21 118.59&#10;  L 437.36 118.46&#10;  Q 435.09 118.35 434.97 120.63&#10;  L 434.35 132.85&#10;  Q 434.30 133.88 433.27 133.99&#10;  L 426.91 134.67&#10;  Q 426.27 134.74 425.92 135.28&#10;  C 424.39 137.66 424.71 141.30 428.26 141.46&#10;  Q 430.75 141.57 433.15 141.54&#10;  A 0.84 0.84 0.0 0 1 434.00 142.40&#10;  Q 433.83 153.35 433.64 163.79&#10;  Q 433.48 171.99 434.46 178.73&#10;  C 436.27 191.27 449.37 192.68 458.83 188.60&#10;  A 0.98 0.97 -18.7 0 0 459.39 187.48&#10;  L 458.30 183.01&#10;  Q 458.10 182.18 457.26 182.35&#10;  C 453.27 183.15 448.40 184.02 445.24 180.93&#10;  C 443.12 178.86 443.02 174.21 442.99 171.20&#10;  Q 442.88 159.89 442.92 148.92&#10;  C 442.93 146.69 442.47 144.53 442.48 142.36"/>
<path stroke="#fae1e1" d="&#10;  M 404.65 152.63&#10;  A 1.99 1.97 -78.4 0 1 403.13 153.65&#10;  C 392.94 154.80 372.46 158.11 371.12 171.56&#10;  C 370.37 179.08 372.76 186.09 379.80 189.06&#10;  C 389.70 193.23 396.39 188.51 404.88 183.63&#10;  A 0.86 0.86 0.0 0 1 406.16 184.50&#10;  L 405.93 186.07&#10;  Q 405.71 187.54 407.15 187.92&#10;  Q 410.05 188.68 412.91 188.17&#10;  A 1.40 1.39 -5.4 0 0 414.06 186.79&#10;  Q 413.95 172.02 413.95 158.16&#10;  Q 413.95 151.22 412.69 145.34&#10;  C 410.58 135.44 402.35 130.97 392.80 131.91&#10;  Q 382.79 132.90 374.35 138.40&#10;  Q 372.65 139.50 373.91 141.09&#10;  L 376.09 143.85&#10;  Q 377.34 145.44 379.04 144.33&#10;  Q 386.19 139.68 393.68 139.60&#10;  C 400.40 139.52 403.51 144.58 404.75 150.50&#10;  Q 405.05 151.90 404.65 152.63"/>
<path stroke="#c5f6ea" d="&#10;  M 492.32 183.93&#10;  C 501.16 190.13 512.76 193.23 522.71 188.34&#10;  Q 532.94 183.32 531.64 171.48&#10;  C 531.01 165.74 524.92 161.13 519.83 159.04&#10;  Q 514.47 156.85 508.76 154.27&#10;  C 501.69 151.07 500.90 142.97 508.79 140.04&#10;  C 514.39 137.97 518.87 139.81 523.77 142.71&#10;  Q 526.04 144.06 527.63 141.95&#10;  L 529.69 139.23&#10;  Q 530.67 137.92 529.27 137.09&#10;  C 520.88 132.09 511.97 129.64 502.86 134.31&#10;  C 497.39 137.12 493.83 142.18 494.18 148.27&#10;  C 494.57 155.11 500.49 159.83 506.55 162.33&#10;  C 511.29 164.28 516.94 166.24 520.67 169.53&#10;  C 523.87 172.35 523.45 178.13 520.43 180.65&#10;  C 513.67 186.28 503.68 182.72 497.43 178.23&#10;  Q 495.86 177.10 494.61 178.56&#10;  L 492.03 181.55&#10;  Q 490.86 182.90 492.32 183.93"/>
<path stroke="#fef4b8" d="&#10;  M 630.45 184.49&#10;  Q 630.29 186.10 630.86 187.38&#10;  Q 631.08 187.86 631.58 188.00&#10;  Q 634.48 188.77 637.41 188.02&#10;  Q 638.44 187.76 638.41 186.70&#10;  C 638.07 175.14 638.60 163.93 638.13 152.21&#10;  C 637.14 127.50 615.31 128.61 598.98 138.17&#10;  Q 597.14 139.25 598.35 141.01&#10;  L 599.82 143.14&#10;  Q 601.43 145.48 603.86 144.01&#10;  Q 611.15 139.59 618.17 139.61&#10;  C 625.29 139.63 628.14 144.93 629.34 151.13&#10;  Q 629.76 153.31 627.55 153.60&#10;  C 617.77 154.89 598.94 157.89 596.02 169.26&#10;  C 593.75 178.10 597.20 187.18 606.53 189.82&#10;  C 615.18 192.28 622.00 188.22 629.05 183.63&#10;  A 0.91 0.91 0.0 0 1 630.45 184.49"/>
<path stroke="#e7e7e2" d="&#10;  M 479.70 135.60&#10;  A 1.36 1.36 0.0 0 0 478.34 134.24&#10;  L 471.58 134.24&#10;  A 1.36 1.36 0.0 0 0 470.22 135.60&#10;  L 470.22 186.88&#10;  A 1.36 1.36 0.0 0 0 471.58 188.24&#10;  L 478.34 188.24&#10;  A 1.36 1.36 0.0 0 0 479.70 186.88&#10;  L 479.70 135.60"/>
<path stroke="#fae1e1" d="&#10;  M 666.91 142.80&#10;  A 0.55 0.55 0.0 0 1 666.10 142.26&#10;  L 666.41 138.85&#10;  Q 666.62 136.59 664.35 136.59&#10;  L 659.96 136.60&#10;  Q 658.10 136.60 658.13 138.46&#10;  Q 658.38 156.46 658.67 175.50&#10;  Q 658.79 183.63 658.38 187.93&#10;  Q 658.06 191.21 661.34 190.91&#10;  L 664.69 190.61&#10;  Q 667.30 190.38 667.13 187.77&#10;  Q 666.33 174.77 667.17 161.89&#10;  Q 667.49 156.93 667.50 151.76&#10;  A 3.12 3.12 0.0 0 1 668.46 149.51&#10;  C 672.02 146.10 676.61 142.71 681.71 142.52&#10;  C 691.78 142.16 692.70 149.46 692.91 157.44&#10;  Q 693.32 173.79 693.17 188.89&#10;  Q 693.15 190.18 694.41 190.45&#10;  Q 697.37 191.10 701.06 190.49&#10;  Q 702.37 190.28 702.38 188.96&#10;  Q 702.48 170.23 702.20 154.77&#10;  C 702.07 147.70 700.43 139.43 693.69 135.96&#10;  C 686.17 132.08 677.18 134.75 670.93 140.07&#10;  Q 669.03 141.69 666.91 142.80"/>
<path stroke="#efeef5" d="&#10;  M 187.80 200.16&#10;  A 0.87 0.87 0.0 0 1 187.64 201.40&#10;  Q 180.53 206.65 172.47 211.68&#10;  Q 171.21 212.47 171.13 213.96&#10;  C 170.99 216.60 164.99 220.66 162.88 221.69&#10;  Q 161.15 222.53 163.00 223.05&#10;  Q 163.97 223.32 164.92 222.65&#10;  Q 168.15 220.37 170.70 217.70&#10;  C 172.35 215.97 175.50 215.92 177.44 216.85&#10;  Q 179.18 217.68 180.68 218.18&#10;  Q 185.74 219.85 200.80 222.80&#10;  C 207.83 224.18 214.74 223.93 220.88 220.44&#10;  Q 222.48 219.53 229.03 214.66&#10;  Q 243.13 204.16 257.37 192.73&#10;  C 260.66 190.09 263.18 187.36 264.84 183.61&#10;  C 266.33 180.26 267.48 176.27 267.90 172.51&#10;  C 268.25 169.26 268.92 166.20 268.87 162.92&#10;  Q 268.81 158.24 269.02 153.74&#10;  C 269.19 150.17 266.50 145.09 270.51 142.64&#10;  Q 273.88 140.59 276.77 137.89&#10;  A 0.37 0.36 35.8 0 0 276.67 137.29&#10;  Q 276.32 137.13 275.93 137.19&#10;  Q 275.09 137.31 274.44 137.84&#10;  Q 270.91 140.73 266.96 142.23&#10;  C 265.11 142.93 263.47 143.97 262.01 145.28&#10;  Q 256.07 150.63 250.25 154.62&#10;  Q 249.45 155.16 248.83 154.42&#10;  L 248.59 154.13&#10;  A 0.65 0.64 -42.0 0 1 248.64 153.25&#10;  Q 256.19 146.06 263.51 140.80&#10;  A 2.22 2.21 59.7 0 0 264.22 138.06&#10;  L 262.82 135.08&#10;  A 2.12 2.11 55.6 0 1 263.27 132.65&#10;  L 270.30 125.93&#10;  Q 270.82 125.43 270.10 125.35&#10;  L 269.54 125.29&#10;  A 1.12 1.09 26.5 0 0 268.69 125.56&#10;  L 262.28 131.34&#10;  A 2.42 2.42 0.0 0 1 259.09 131.38&#10;  Q 249.79 123.40 239.16 118.73&#10;  C 238.17 118.29 236.33 117.04 235.85 116.09&#10;  Q 226.64 98.16 211.30 82.73&#10;  C 209.54 80.96 204.27 76.78 202.97 81.33&#10;  C 200.01 91.69 198.91 103.04 198.17 114.02&#10;  Q 198.02 116.21 196.05 117.26&#10;  Q 180.26 125.65 167.47 139.13&#10;  Q 166.10 140.57 164.20 140.11&#10;  C 153.24 137.45 141.02 135.05 129.45 135.32&#10;  A 1.39 1.39 0.0 0 0 128.14 137.08&#10;  Q 129.28 141.20 131.25 145.19&#10;  Q 137.55 157.96 146.76 168.83&#10;  Q 150.86 173.67 154.79 178.20&#10;  C 155.60 179.13 156.25 180.37 156.51 181.57&#10;  Q 158.95 192.89 162.97 202.55&#10;  Q 163.64 204.16 163.76 205.83&#10;  Q 163.81 206.43 163.26 206.67&#10;  L 154.00 210.81&#10;  Q 153.10 211.21 154.04 211.50&#10;  Q 155.95 212.09 157.54 211.18&#10;  Q 160.63 209.43 164.35 208.23&#10;  A 1.22 1.21 48.5 0 1 165.25 208.29&#10;  C 167.36 209.30 169.33 211.94 171.76 209.82&#10;  Q 178.18 204.21 185.13 200.33&#10;  Q 186.13 199.77 187.31 199.89&#10;  Q 187.61 199.93 187.80 200.16"/>
<path stroke="#efeef5" d="&#10;  M 235.0507 157.9163&#10;  A 13.98 11.05 49.6 0 0 234.4050 140.1083&#10;  A 13.98 11.05 49.6 0 0 216.9293 136.6237&#10;  A 13.98 11.05 49.6 0 0 217.5750 154.4317&#10;  A 13.98 11.05 49.6 0 0 235.0507 157.9163"/>
<path stroke="#efeef5" d="&#10;  M 264.6742 150.4731&#10;  A 7.65 1.16 -34.9 0 0 257.7363 153.8986&#10;  A 7.65 1.16 -34.9 0 0 252.1258 159.2269&#10;  A 7.65 1.16 -34.9 0 0 259.0637 155.8014&#10;  A 7.65 1.16 -34.9 0 0 264.6742 150.4731"/>
<path stroke="#efeef5" d="&#10;  M 189.69 188.74&#10;  C 192.25 188.94 194.40 188.52 196.61 187.07&#10;  C 207.13 180.23 199.33 168.87 192.07 164.04&#10;  Q 188.78 161.85 184.84 162.82&#10;  C 168.56 166.87 178.06 187.85 189.69 188.74"/>
<path stroke="#efeef5" d="&#10;  M 224.04 182.83&#10;  C 226.29 183.04 228.89 183.62 230.49 181.68&#10;  C 231.53 180.41 232.30 178.86 231.81 177.17&#10;  C 230.89 174.02 228.08 174.50 226.04 176.06&#10;  Q 219.79 180.85 214.15 184.76&#10;  A 1.55 1.55 0.0 0 0 214.11 187.28&#10;  C 216.75 189.23 221.75 191.47 223.42 186.98&#10;  Q 223.60 186.51 223.55 186.00&#10;  L 223.28 183.60&#10;  Q 223.19 182.76 224.04 182.83"/>
<path stroke="#efeef5" d="&#10;  M 192.4317 205.0889&#10;  A 8.82 1.45 -36.7 0 0 184.4934 209.1974&#10;  A 8.82 1.45 -36.7 0 0 178.2883 215.6311&#10;  A 8.82 1.45 -36.7 0 0 186.2266 211.5226&#10;  A 8.82 1.45 -36.7 0 0 192.4317 205.0889"/>
<path stroke="#c7c4c4" d="&#10;  M 754.50 146.28&#10;  C 743.89 139.20 733.46 141.06 728.66 153.39&#10;  Q 726.61 158.65 727.07 165.24&#10;  C 727.63 173.21 728.80 181.04 736.81 184.29&#10;  C 744.40 187.37 750.45 183.18 755.77 178.30&#10;  A 1.52 1.52 0.0 0 0 756.25 177.19&#10;  Q 756.24 163.75 756.26 149.23&#10;  C 756.26 147.97 755.52 146.95 754.50 146.28"/>
<path stroke="#fae1e1" d="&#10;  M 403.32 160.25&#10;  C 396.69 160.98 380.97 163.86 380.06 172.46&#10;  C 379.70 175.86 380.18 179.98 383.49 181.68&#10;  C 389.88 184.94 396.43 182.56 401.66 178.43&#10;  C 403.14 177.26 404.81 176.42 404.78 174.25&#10;  Q 404.71 168.41 404.86 161.67&#10;  Q 404.90 160.08 403.32 160.25"/>
<path stroke="#fef4b8" d="&#10;  M 608.90 182.19&#10;  C 615.36 185.20 621.79 181.92 626.85 177.96&#10;  C 628.27 176.85 629.46 175.65 629.36 173.67&#10;  Q 629.00 167.10 629.57 161.20&#10;  Q 629.63 160.59 629.02 160.47&#10;  Q 627.19 160.11 625.29 160.49&#10;  C 619.35 161.66 613.43 162.84 608.42 166.36&#10;  Q 603.53 169.79 604.52 176.28&#10;  Q 605.15 180.44 608.90 182.19"/>
<path stroke="#efeef5" d="&#10;  M 233.62 154.93&#10;  C 234.79 152.21 235.76 149.20 234.04 146.52&#10;  C 231.34 142.29 224.96 133.03 219.01 139.03&#10;  C 214.27 143.81 221.12 152.56 224.46 155.61&#10;  C 227.11 158.04 231.87 158.98 233.62 154.93"/>
<path stroke="#efeef5" d="&#10;  M 195.5168 184.8253&#10;  A 11.06 7.32 54.6 0 0 195.0767 171.5697&#10;  A 11.06 7.32 54.6 0 0 182.7032 166.7947&#10;  A 11.06 7.32 54.6 0 0 183.1433 180.0503&#10;  A 11.06 7.32 54.6 0 0 195.5168 184.8253"/>
</g>
<path fill="#ffffff" d="&#10;  M 0.00 0.00&#10;  L 883.00 0.00&#10;  L 883.00 283.00&#10;  L 0.00 283.00&#10;  L 0.00 0.00&#10;  Z&#10;  M 279.41 145.15&#10;  A 86.10 86.10 0.0 0 0 193.31 59.05&#10;  A 86.10 86.10 0.0 0 0 107.21 145.15&#10;  A 86.10 86.10 0.0 0 0 193.31 231.25&#10;  A 86.10 86.10 0.0 0 0 279.41 145.15&#10;  Z&#10;  M 756.97 138.97&#10;  A 0.60 0.60 0.0 0 1 756.09 139.55&#10;  Q 752.43 137.54 749.00 135.80&#10;  C 743.77 133.16 736.27 133.95 730.99 136.87&#10;  Q 726.56 139.33 722.91 144.05&#10;  Q 719.72 148.18 718.54 153.60&#10;  Q 715.90 165.75 719.39 177.37&#10;  C 723.14 189.89 735.35 196.11 747.70 191.32&#10;  C 751.01 190.03 753.73 187.65 756.98 186.06&#10;  A 0.43 0.43 0.0 0 1 757.59 186.48&#10;  L 757.43 188.98&#10;  Q 757.35 190.22 758.57 190.46&#10;  Q 761.15 190.98 764.34 190.49&#10;  Q 765.39 190.33 765.39 189.27&#10;  L 765.37 111.17&#10;  A 1.20 1.19 89.8 0 0 764.17 109.97&#10;  L 757.08 110.06&#10;  A 1.04 1.04 0.0 0 0 756.05 111.13&#10;  Q 756.31 122.35 756.30 132.91&#10;  C 756.29 134.97 756.79 136.95 756.97 138.97&#10;  Z&#10;  M 334.54 110.83&#10;  C 321.72 112.57 312.78 120.77 308.36 132.95&#10;  C 301.74 151.23 305.67 181.14 326.93 188.68&#10;  Q 345.25 195.19 360.08 180.87&#10;  Q 360.96 180.02 360.16 179.09&#10;  L 357.17 175.63&#10;  Q 355.40 173.58 353.53 175.55&#10;  Q 346.49 182.99 336.70 182.32&#10;  C 325.84 181.57 319.04 173.52 316.61 163.44&#10;  C 312.90 148.07 315.34 120.81 336.75 119.01&#10;  C 340.96 118.66 345.89 119.74 349.30 122.49&#10;  Q 350.84 123.73 352.44 124.82&#10;  Q 354.06 125.91 355.32 124.43&#10;  L 357.91 121.40&#10;  Q 359.19 119.89 357.70 118.60&#10;  Q 346.85 109.16 334.54 110.83&#10;  Z&#10;  M 481.0550 115.5889&#10;  A 5.33 5.33 0.0 0 0 475.2977 110.7236&#10;  L 473.7033 110.8575&#10;  A 5.33 5.33 0.0 0 0 468.8380 116.6148&#10;  L 468.9250 117.6511&#10;  A 5.33 5.33 0.0 0 0 474.6823 122.5164&#10;  L 476.2767 122.3825&#10;  A 5.33 5.33 0.0 0 0 481.1420 116.6252&#10;  L 481.0550 115.5889&#10;  Z&#10;  M 556.37 180.19&#10;  A 0.99 0.99 0.0 0 1 555.63 179.33&#10;  Q 555.31 176.21 555.31 173.25&#10;  Q 555.32 144.57 555.28 114.48&#10;  Q 555.28 112.90 553.70 112.91&#10;  L 547.25 112.92&#10;  Q 545.92 112.92 545.92 114.25&#10;  L 545.97 186.31&#10;  A 1.65 1.65 0.0 0 0 547.30 187.93&#10;  Q 549.10 188.28 550.76 188.26&#10;  Q 568.50 188.05 586.16 188.12&#10;  Q 588.26 188.13 588.23 186.03&#10;  L 588.18 182.14&#10;  Q 588.16 180.38 586.39 180.42&#10;  Q 569.28 180.80 557.53 180.36&#10;  Q 556.97 180.34 556.37 180.19&#10;  Z&#10;  M 442.48 142.36&#10;  A 1.18 1.17 -0.8 0 1 443.63 141.19&#10;  L 455.51 140.94&#10;  Q 457.96 140.89 458.14 138.46&#10;  L 458.22 137.44&#10;  Q 458.43 134.70 455.68 134.71&#10;  L 444.68 134.77&#10;  A 1.87 1.87 0.0 0 1 442.80 132.93&#10;  L 442.66 121.13&#10;  Q 442.63 118.70 440.21 118.59&#10;  L 437.36 118.46&#10;  Q 435.09 118.35 434.97 120.63&#10;  L 434.35 132.85&#10;  Q 434.30 133.88 433.27 133.99&#10;  L 426.91 134.67&#10;  Q 426.27 134.74 425.92 135.28&#10;  C 424.39 137.66 424.71 141.30 428.26 141.46&#10;  Q 430.75 141.57 433.15 141.54&#10;  A 0.84 0.84 0.0 0 1 434.00 142.40&#10;  Q 433.83 153.35 433.64 163.79&#10;  Q 433.48 171.99 434.46 178.73&#10;  C 436.27 191.27 449.37 192.68 458.83 188.60&#10;  A 0.98 0.97 -18.7 0 0 459.39 187.48&#10;  L 458.30 183.01&#10;  Q 458.10 182.18 457.26 182.35&#10;  C 453.27 183.15 448.40 184.02 445.24 180.93&#10;  C 443.12 178.86 443.02 174.21 442.99 171.20&#10;  Q 442.88 159.89 442.92 148.92&#10;  C 442.93 146.69 442.47 144.53 442.48 142.36&#10;  Z&#10;  M 404.65 152.63&#10;  A 1.99 1.97 -78.4 0 1 403.13 153.65&#10;  C 392.94 154.80 372.46 158.11 371.12 171.56&#10;  C 370.37 179.08 372.76 186.09 379.80 189.06&#10;  C 389.70 193.23 396.39 188.51 404.88 183.63&#10;  A 0.86 0.86 0.0 0 1 406.16 184.50&#10;  L 405.93 186.07&#10;  Q 405.71 187.54 407.15 187.92&#10;  Q 410.05 188.68 412.91 188.17&#10;  A 1.40 1.39 -5.4 0 0 414.06 186.79&#10;  Q 413.95 172.02 413.95 158.16&#10;  Q 413.95 151.22 412.69 145.34&#10;  C 410.58 135.44 402.35 130.97 392.80 131.91&#10;  Q 382.79 132.90 374.35 138.40&#10;  Q 372.65 139.50 373.91 141.09&#10;  L 376.09 143.85&#10;  Q 377.34 145.44 379.04 144.33&#10;  Q 386.19 139.68 393.68 139.60&#10;  C 400.40 139.52 403.51 144.58 404.75 150.50&#10;  Q 405.05 151.90 404.65 152.63&#10;  Z&#10;  M 492.32 183.93&#10;  C 501.16 190.13 512.76 193.23 522.71 188.34&#10;  Q 532.94 183.32 531.64 171.48&#10;  C 531.01 165.74 524.92 161.13 519.83 159.04&#10;  Q 514.47 156.85 508.76 154.27&#10;  C 501.69 151.07 500.90 142.97 508.79 140.04&#10;  C 514.39 137.97 518.87 139.81 523.77 142.71&#10;  Q 526.04 144.06 527.63 141.95&#10;  L 529.69 139.23&#10;  Q 530.67 137.92 529.27 137.09&#10;  C 520.88 132.09 511.97 129.64 502.86 134.31&#10;  C 497.39 137.12 493.83 142.18 494.18 148.27&#10;  C 494.57 155.11 500.49 159.83 506.55 162.33&#10;  C 511.29 164.28 516.94 166.24 520.67 169.53&#10;  C 523.87 172.35 523.45 178.13 520.43 180.65&#10;  C 513.67 186.28 503.68 182.72 497.43 178.23&#10;  Q 495.86 177.10 494.61 178.56&#10;  L 492.03 181.55&#10;  Q 490.86 182.90 492.32 183.93&#10;  Z&#10;  M 630.45 184.49&#10;  Q 630.29 186.10 630.86 187.38&#10;  Q 631.08 187.86 631.58 188.00&#10;  Q 634.48 188.77 637.41 188.02&#10;  Q 638.44 187.76 638.41 186.70&#10;  C 638.07 175.14 638.60 163.93 638.13 152.21&#10;  C 637.14 127.50 615.31 128.61 598.98 138.17&#10;  Q 597.14 139.25 598.35 141.01&#10;  L 599.82 143.14&#10;  Q 601.43 145.48 603.86 144.01&#10;  Q 611.15 139.59 618.17 139.61&#10;  C 625.29 139.63 628.14 144.93 629.34 151.13&#10;  Q 629.76 153.31 627.55 153.60&#10;  C 617.77 154.89 598.94 157.89 596.02 169.26&#10;  C 593.75 178.10 597.20 187.18 606.53 189.82&#10;  C 615.18 192.28 622.00 188.22 629.05 183.63&#10;  A 0.91 0.91 0.0 0 1 630.45 184.49&#10;  Z&#10;  M 479.70 135.60&#10;  A 1.36 1.36 0.0 0 0 478.34 134.24&#10;  L 471.58 134.24&#10;  A 1.36 1.36 0.0 0 0 470.22 135.60&#10;  L 470.22 186.88&#10;  A 1.36 1.36 0.0 0 0 471.58 188.24&#10;  L 478.34 188.24&#10;  A 1.36 1.36 0.0 0 0 479.70 186.88&#10;  L 479.70 135.60&#10;  Z&#10;  M 666.91 142.80&#10;  A 0.55 0.55 0.0 0 1 666.10 142.26&#10;  L 666.41 138.85&#10;  Q 666.62 136.59 664.35 136.59&#10;  L 659.96 136.60&#10;  Q 658.10 136.60 658.13 138.46&#10;  Q 658.38 156.46 658.67 175.50&#10;  Q 658.79 183.63 658.38 187.93&#10;  Q 658.06 191.21 661.34 190.91&#10;  L 664.69 190.61&#10;  Q 667.30 190.38 667.13 187.77&#10;  Q 666.33 174.77 667.17 161.89&#10;  Q 667.49 156.93 667.50 151.76&#10;  A 3.12 3.12 0.0 0 1 668.46 149.51&#10;  C 672.02 146.10 676.61 142.71 681.71 142.52&#10;  C 691.78 142.16 692.70 149.46 692.91 157.44&#10;  Q 693.32 173.79 693.17 188.89&#10;  Q 693.15 190.18 694.41 190.45&#10;  Q 697.37 191.10 701.06 190.49&#10;  Q 702.37 190.28 702.38 188.96&#10;  Q 702.48 170.23 702.20 154.77&#10;  C 702.07 147.70 700.43 139.43 693.69 135.96&#10;  C 686.17 132.08 677.18 134.75 670.93 140.07&#10;  Q 669.03 141.69 666.91 142.80&#10;  Z"/>
<path fill="#dee5f2" d="&#10;  M 279.41 145.15&#10;  A 86.10 86.10 0.0 0 1 193.31 231.25&#10;  A 86.10 86.10 0.0 0 1 107.21 145.15&#10;  A 86.10 86.10 0.0 0 1 193.31 59.05&#10;  A 86.10 86.10 0.0 0 1 279.41 145.15&#10;  Z&#10;  M 187.80 200.16&#10;  A 0.87 0.87 0.0 0 1 187.64 201.40&#10;  Q 180.53 206.65 172.47 211.68&#10;  Q 171.21 212.47 171.13 213.96&#10;  C 170.99 216.60 164.99 220.66 162.88 221.69&#10;  Q 161.15 222.53 163.00 223.05&#10;  Q 163.97 223.32 164.92 222.65&#10;  Q 168.15 220.37 170.70 217.70&#10;  C 172.35 215.97 175.50 215.92 177.44 216.85&#10;  Q 179.18 217.68 180.68 218.18&#10;  Q 185.74 219.85 200.80 222.80&#10;  C 207.83 224.18 214.74 223.93 220.88 220.44&#10;  Q 222.48 219.53 229.03 214.66&#10;  Q 243.13 204.16 257.37 192.73&#10;  C 260.66 190.09 263.18 187.36 264.84 183.61&#10;  C 266.33 180.26 267.48 176.27 267.90 172.51&#10;  C 268.25 169.26 268.92 166.20 268.87 162.92&#10;  Q 268.81 158.24 269.02 153.74&#10;  C 269.19 150.17 266.50 145.09 270.51 142.64&#10;  Q 273.88 140.59 276.77 137.89&#10;  A 0.37 0.36 35.8 0 0 276.67 137.29&#10;  Q 276.32 137.13 275.93 137.19&#10;  Q 275.09 137.31 274.44 137.84&#10;  Q 270.91 140.73 266.96 142.23&#10;  C 265.11 142.93 263.47 143.97 262.01 145.28&#10;  Q 256.07 150.63 250.25 154.62&#10;  Q 249.45 155.16 248.83 154.42&#10;  L 248.59 154.13&#10;  A 0.65 0.64 -42.0 0 1 248.64 153.25&#10;  Q 256.19 146.06 263.51 140.80&#10;  A 2.22 2.21 59.7 0 0 264.22 138.06&#10;  L 262.82 135.08&#10;  A 2.12 2.11 55.6 0 1 263.27 132.65&#10;  L 270.30 125.93&#10;  Q 270.82 125.43 270.10 125.35&#10;  L 269.54 125.29&#10;  A 1.12 1.09 26.5 0 0 268.69 125.56&#10;  L 262.28 131.34&#10;  A 2.42 2.42 0.0 0 1 259.09 131.38&#10;  Q 249.79 123.40 239.16 118.73&#10;  C 238.17 118.29 236.33 117.04 235.85 116.09&#10;  Q 226.64 98.16 211.30 82.73&#10;  C 209.54 80.96 204.27 76.78 202.97 81.33&#10;  C 200.01 91.69 198.91 103.04 198.17 114.02&#10;  Q 198.02 116.21 196.05 117.26&#10;  Q 180.26 125.65 167.47 139.13&#10;  Q 166.10 140.57 164.20 140.11&#10;  C 153.24 137.45 141.02 135.05 129.45 135.32&#10;  A 1.39 1.39 0.0 0 0 128.14 137.08&#10;  Q 129.28 141.20 131.25 145.19&#10;  Q 137.55 157.96 146.76 168.83&#10;  Q 150.86 173.67 154.79 178.20&#10;  C 155.60 179.13 156.25 180.37 156.51 181.57&#10;  Q 158.95 192.89 162.97 202.55&#10;  Q 163.64 204.16 163.76 205.83&#10;  Q 163.81 206.43 163.26 206.67&#10;  L 154.00 210.81&#10;  Q 153.10 211.21 154.04 211.50&#10;  Q 155.95 212.09 157.54 211.18&#10;  Q 160.63 209.43 164.35 208.23&#10;  A 1.22 1.21 48.5 0 1 165.25 208.29&#10;  C 167.36 209.30 169.33 211.94 171.76 209.82&#10;  Q 178.18 204.21 185.13 200.33&#10;  Q 186.13 199.77 187.31 199.89&#10;  Q 187.61 199.93 187.80 200.16&#10;  Z"/>
<path fill="#fff7f7" d="&#10;  M 187.80 200.16&#10;  Q 187.61 199.93 187.31 199.89&#10;  Q 186.13 199.77 185.13 200.33&#10;  Q 178.18 204.21 171.76 209.82&#10;  C 169.33 211.94 167.36 209.30 165.25 208.29&#10;  A 1.22 1.21 48.5 0 0 164.35 208.23&#10;  Q 160.63 209.43 157.54 211.18&#10;  Q 155.95 212.09 154.04 211.50&#10;  Q 153.10 211.21 154.00 210.81&#10;  L 163.26 206.67&#10;  Q 163.81 206.43 163.76 205.83&#10;  Q 163.64 204.16 162.97 202.55&#10;  Q 158.95 192.89 156.51 181.57&#10;  C 156.25 180.37 155.60 179.13 154.79 178.20&#10;  Q 150.86 173.67 146.76 168.83&#10;  Q 137.55 157.96 131.25 145.19&#10;  Q 129.28 141.20 128.14 137.08&#10;  A 1.39 1.39 0.0 0 1 129.45 135.32&#10;  C 141.02 135.05 153.24 137.45 164.20 140.11&#10;  Q 166.10 140.57 167.47 139.13&#10;  Q 180.26 125.65 196.05 117.26&#10;  Q 198.02 116.21 198.17 114.02&#10;  C 198.91 103.04 200.01 91.69 202.97 81.33&#10;  C 204.27 76.78 209.54 80.96 211.30 82.73&#10;  Q 226.64 98.16 235.85 116.09&#10;  C 236.33 117.04 238.17 118.29 239.16 118.73&#10;  Q 249.79 123.40 259.09 131.38&#10;  A 2.42 2.42 0.0 0 0 262.28 131.34&#10;  L 268.69 125.56&#10;  A 1.12 1.09 26.5 0 1 269.54 125.29&#10;  L 270.10 125.35&#10;  Q 270.82 125.43 270.30 125.93&#10;  L 263.27 132.65&#10;  A 2.12 2.11 55.6 0 0 262.82 135.08&#10;  L 264.22 138.06&#10;  A 2.22 2.21 59.7 0 1 263.51 140.80&#10;  Q 256.19 146.06 248.64 153.25&#10;  A 0.65 0.64 -42.0 0 0 248.59 154.13&#10;  L 248.83 154.42&#10;  Q 249.45 155.16 250.25 154.62&#10;  Q 256.07 150.63 262.01 145.28&#10;  C 263.47 143.97 265.11 142.93 266.96 142.23&#10;  Q 270.91 140.73 274.44 137.84&#10;  Q 275.09 137.31 275.93 137.19&#10;  Q 276.32 137.13 276.67 137.29&#10;  A 0.37 0.36 35.8 0 1 276.77 137.89&#10;  Q 273.88 140.59 270.51 142.64&#10;  C 266.50 145.09 269.19 150.17 269.02 153.74&#10;  Q 268.81 158.24 268.87 162.92&#10;  C 268.92 166.20 268.25 169.26 267.90 172.51&#10;  C 267.48 176.27 266.33 180.26 264.84 183.61&#10;  C 263.18 187.36 260.66 190.09 257.37 192.73&#10;  Q 243.13 204.16 229.03 214.66&#10;  Q 222.48 219.53 220.88 220.44&#10;  C 214.74 223.93 207.83 224.18 200.80 222.80&#10;  Q 185.74 219.85 180.68 218.18&#10;  Q 179.18 217.68 177.44 216.85&#10;  C 175.50 215.92 172.35 215.97 170.70 217.70&#10;  Q 168.15 220.37 164.92 222.65&#10;  Q 163.97 223.32 163.00 223.05&#10;  Q 161.15 222.53 162.88 221.69&#10;  C 164.99 220.66 170.99 216.60 171.13 213.96&#10;  Q 171.21 212.47 172.47 211.68&#10;  Q 180.53 206.65 187.64 201.40&#10;  A 0.87 0.87 0.0 0 0 187.80 200.16&#10;  Z&#10;  M 235.0507 157.9163&#10;  A 13.98 11.05 49.6 0 0 234.4050 140.1083&#10;  A 13.98 11.05 49.6 0 0 216.9293 136.6237&#10;  A 13.98 11.05 49.6 0 0 217.5750 154.4317&#10;  A 13.98 11.05 49.6 0 0 235.0507 157.9163&#10;  Z&#10;  M 264.6742 150.4731&#10;  A 7.65 1.16 -34.9 0 0 257.7363 153.8986&#10;  A 7.65 1.16 -34.9 0 0 252.1258 159.2269&#10;  A 7.65 1.16 -34.9 0 0 259.0637 155.8014&#10;  A 7.65 1.16 -34.9 0 0 264.6742 150.4731&#10;  Z&#10;  M 189.69 188.74&#10;  C 192.25 188.94 194.40 188.52 196.61 187.07&#10;  C 207.13 180.23 199.33 168.87 192.07 164.04&#10;  Q 188.78 161.85 184.84 162.82&#10;  C 168.56 166.87 178.06 187.85 189.69 188.74&#10;  Z&#10;  M 224.04 182.83&#10;  C 226.29 183.04 228.89 183.62 230.49 181.68&#10;  C 231.53 180.41 232.30 178.86 231.81 177.17&#10;  C 230.89 174.02 228.08 174.50 226.04 176.06&#10;  Q 219.79 180.85 214.15 184.76&#10;  A 1.55 1.55 0.0 0 0 214.11 187.28&#10;  C 216.75 189.23 221.75 191.47 223.42 186.98&#10;  Q 223.60 186.51 223.55 186.00&#10;  L 223.28 183.60&#10;  Q 223.19 182.76 224.04 182.83&#10;  Z&#10;  M 192.4317 205.0889&#10;  A 8.82 1.45 -36.7 0 0 184.4934 209.1974&#10;  A 8.82 1.45 -36.7 0 0 178.2883 215.6311&#10;  A 8.82 1.45 -36.7 0 0 186.2266 211.5226&#10;  A 8.82 1.45 -36.7 0 0 192.4317 205.0889&#10;  Z"/>
<path fill="#8f8888" d="&#10;  M 756.97 138.97&#10;  C 756.79 136.95 756.29 134.97 756.30 132.91&#10;  Q 756.31 122.35 756.05 111.13&#10;  A 1.04 1.04 0.0 0 1 757.08 110.06&#10;  L 764.17 109.97&#10;  A 1.20 1.19 89.8 0 1 765.37 111.17&#10;  L 765.39 189.27&#10;  Q 765.39 190.33 764.34 190.49&#10;  Q 761.15 190.98 758.57 190.46&#10;  Q 757.35 190.22 757.43 188.98&#10;  L 757.59 186.48&#10;  A 0.43 0.43 0.0 0 0 756.98 186.06&#10;  C 753.73 187.65 751.01 190.03 747.70 191.32&#10;  C 735.35 196.11 723.14 189.89 719.39 177.37&#10;  Q 715.90 165.75 718.54 153.60&#10;  Q 719.72 148.18 722.91 144.05&#10;  Q 726.56 139.33 730.99 136.87&#10;  C 736.27 133.95 743.77 133.16 749.00 135.80&#10;  Q 752.43 137.54 756.09 139.55&#10;  A 0.60 0.60 0.0 0 0 756.97 138.97&#10;  Z&#10;  M 754.50 146.28&#10;  C 743.89 139.20 733.46 141.06 728.66 153.39&#10;  Q 726.61 158.65 727.07 165.24&#10;  C 727.63 173.21 728.80 181.04 736.81 184.29&#10;  C 744.40 187.37 750.45 183.18 755.77 178.30&#10;  A 1.52 1.52 0.0 0 0 756.25 177.19&#10;  Q 756.24 163.75 756.26 149.23&#10;  C 756.26 147.97 755.52 146.95 754.50 146.28&#10;  Z"/>
<path fill="#ace6ef" d="&#10;  M 334.54 110.83&#10;  Q 346.85 109.16 357.70 118.60&#10;  Q 359.19 119.89 357.91 121.40&#10;  L 355.32 124.43&#10;  Q 354.06 125.91 352.44 124.82&#10;  Q 350.84 123.73 349.30 122.49&#10;  C 345.89 119.74 340.96 118.66 336.75 119.01&#10;  C 315.34 120.81 312.90 148.07 316.61 163.44&#10;  C 319.04 173.52 325.84 181.57 336.70 182.32&#10;  Q 346.49 182.99 353.53 175.55&#10;  Q 355.40 173.58 357.17 175.63&#10;  L 360.16 179.09&#10;  Q 360.96 180.02 360.08 180.87&#10;  Q 345.25 195.19 326.93 188.68&#10;  C 305.67 181.14 301.74 151.23 308.36 132.95&#10;  C 312.78 120.77 321.72 112.57 334.54 110.83&#10;  Z"/>
<rect fill="#cfcfc4" x="-6.13" y="-5.85" transform="translate(474.99,116.62) rotate(-4.8)" width="12.26" height="11.70" rx="5.33"/>
<path fill="#b6c9d6" d="&#10;  M 556.37 180.19&#10;  Q 556.97 180.34 557.53 180.36&#10;  Q 569.28 180.80 586.39 180.42&#10;  Q 588.16 180.38 588.18 182.14&#10;  L 588.23 186.03&#10;  Q 588.26 188.13 586.16 188.12&#10;  Q 568.50 188.05 550.76 188.26&#10;  Q 549.10 188.28 547.30 187.93&#10;  A 1.65 1.65 0.0 0 1 545.97 186.31&#10;  L 545.92 114.25&#10;  Q 545.92 112.92 547.25 112.92&#10;  L 553.70 112.91&#10;  Q 555.28 112.90 555.28 114.48&#10;  Q 555.32 144.57 555.31 173.25&#10;  Q 555.31 176.21 555.63 179.33&#10;  A 0.99 0.99 0.0 0 0 556.37 180.19&#10;  Z"/>
<path fill="#a3bfc2" d="&#10;  M 442.48 142.36&#10;  C 442.47 144.53 442.93 146.69 442.92 148.92&#10;  Q 442.88 159.89 442.99 171.20&#10;  C 443.02 174.21 443.12 178.86 445.24 180.93&#10;  C 448.40 184.02 453.27 183.15 457.26 182.35&#10;  Q 458.10 182.18 458.30 183.01&#10;  L 459.39 187.48&#10;  A 0.98 0.97 -18.7 0 1 458.83 188.60&#10;  C 449.37 192.68 436.27 191.27 434.46 178.73&#10;  Q 433.48 171.99 433.64 163.79&#10;  Q 433.83 153.35 434.00 142.40&#10;  A 0.84 0.84 0.0 0 0 433.15 141.54&#10;  Q 430.75 141.57 428.26 141.46&#10;  C 424.71 141.30 424.39 137.66 425.92 135.28&#10;  Q 426.27 134.74 426.91 134.67&#10;  L 433.27 133.99&#10;  Q 434.30 133.88 434.35 132.85&#10;  L 434.97 120.63&#10;  Q 435.09 118.35 437.36 118.46&#10;  L 440.21 118.59&#10;  Q 442.63 118.70 442.66 121.13&#10;  L 442.80 132.93&#10;  A 1.87 1.87 0.0 0 0 444.68 134.77&#10;  L 455.68 134.71&#10;  Q 458.43 134.70 458.22 137.44&#10;  L 458.14 138.46&#10;  Q 457.96 140.89 455.51 140.94&#10;  L 443.63 141.19&#10;  A 1.18 1.17 -0.8 0 0 442.48 142.36&#10;  Z"/>
<path fill="#f4c2c2" d="&#10;  M 404.65 152.63&#10;  Q 405.05 151.90 404.75 150.50&#10;  C 403.51 144.58 400.40 139.52 393.68 139.60&#10;  Q 386.19 139.68 379.04 144.33&#10;  Q 377.34 145.44 376.09 143.85&#10;  L 373.91 141.09&#10;  Q 372.65 139.50 374.35 138.40&#10;  Q 382.79 132.90 392.80 131.91&#10;  C 402.35 130.97 410.58 135.44 412.69 145.34&#10;  Q 413.95 151.22 413.95 158.16&#10;  Q 413.95 172.02 414.06 186.79&#10;  A 1.40 1.39 -5.4 0 1 412.91 188.17&#10;  Q 410.05 188.68 407.15 187.92&#10;  Q 405.71 187.54 405.93 186.07&#10;  L 406.16 184.50&#10;  A 0.86 0.86 0.0 0 0 404.88 183.63&#10;  C 396.39 188.51 389.70 193.23 379.80 189.06&#10;  C 372.76 186.09 370.37 179.08 371.12 171.56&#10;  C 372.46 158.11 392.94 154.80 403.13 153.65&#10;  A 1.99 1.97 -78.4 0 0 404.65 152.63&#10;  Z&#10;  M 403.32 160.25&#10;  C 396.69 160.98 380.97 163.86 380.06 172.46&#10;  C 379.70 175.86 380.18 179.98 383.49 181.68&#10;  C 389.88 184.94 396.43 182.56 401.66 178.43&#10;  C 403.14 177.26 404.81 176.42 404.78 174.25&#10;  Q 404.71 168.41 404.86 161.67&#10;  Q 404.90 160.08 403.32 160.25&#10;  Z"/>
<path fill="#8aedd4" d="&#10;  M 522.71 188.34&#10;  C 512.76 193.23 501.16 190.13 492.32 183.93&#10;  Q 490.86 182.90 492.03 181.55&#10;  L 494.61 178.56&#10;  Q 495.86 177.10 497.43 178.23&#10;  C 503.68 182.72 513.67 186.28 520.43 180.65&#10;  C 523.45 178.13 523.87 172.35 520.67 169.53&#10;  C 516.94 166.24 511.29 164.28 506.55 162.33&#10;  C 500.49 159.83 494.57 155.11 494.18 148.27&#10;  C 493.83 142.18 497.39 137.12 502.86 134.31&#10;  C 511.97 129.64 520.88 132.09 529.27 137.09&#10;  Q 530.67 137.92 529.69 139.23&#10;  L 527.63 141.95&#10;  Q 526.04 144.06 523.77 142.71&#10;  C 518.87 139.81 514.39 137.97 508.79 140.04&#10;  C 500.90 142.97 501.69 151.07 508.76 154.27&#10;  Q 514.47 156.85 519.83 159.04&#10;  C 524.92 161.13 531.01 165.74 531.64 171.48&#10;  Q 532.94 183.32 522.71 188.34&#10;  Z"/>
<path fill="#fce870" d="&#10;  M 630.45 184.49&#10;  A 0.91 0.91 0.0 0 0 629.05 183.63&#10;  C 622.00 188.22 615.18 192.28 606.53 189.82&#10;  C 597.20 187.18 593.75 178.10 596.02 169.26&#10;  C 598.94 157.89 617.77 154.89 627.55 153.60&#10;  Q 629.76 153.31 629.34 151.13&#10;  C 628.14 144.93 625.29 139.63 618.17 139.61&#10;  Q 611.15 139.59 603.86 144.01&#10;  Q 601.43 145.48 599.82 143.14&#10;  L 598.35 141.01&#10;  Q 597.14 139.25 598.98 138.17&#10;  C 615.31 128.61 637.14 127.50 638.13 152.21&#10;  C 638.60 163.93 638.07 175.14 638.41 186.70&#10;  Q 638.44 187.76 637.41 188.02&#10;  Q 634.48 188.77 631.58 188.00&#10;  Q 631.08 187.86 630.86 187.38&#10;  Q 630.29 186.10 630.45 184.49&#10;  Z&#10;  M 608.90 182.19&#10;  C 615.36 185.20 621.79 181.92 626.85 177.96&#10;  C 628.27 176.85 629.46 175.65 629.36 173.67&#10;  Q 629.00 167.10 629.57 161.20&#10;  Q 629.63 160.59 629.02 160.47&#10;  Q 627.19 160.11 625.29 160.49&#10;  C 619.35 161.66 613.43 162.84 608.42 166.36&#10;  Q 603.53 169.79 604.52 176.28&#10;  Q 605.15 180.44 608.90 182.19&#10;  Z"/>
<path fill="#dee5f2" d="&#10;  M 235.0507 157.9163&#10;  A 13.98 11.05 49.6 0 1 217.5750 154.4317&#10;  A 13.98 11.05 49.6 0 1 216.9293 136.6237&#10;  A 13.98 11.05 49.6 0 1 234.4050 140.1083&#10;  A 13.98 11.05 49.6 0 1 235.0507 157.9163&#10;  Z&#10;  M 233.62 154.93&#10;  C 234.79 152.21 235.76 149.20 234.04 146.52&#10;  C 231.34 142.29 224.96 133.03 219.01 139.03&#10;  C 214.27 143.81 221.12 152.56 224.46 155.61&#10;  C 227.11 158.04 231.87 158.98 233.62 154.93&#10;  Z"/>
<rect fill="#cfcfc4" x="470.22" y="134.24" width="9.48" height="54.00" rx="1.36"/>
<path fill="#f4c2c2" d="&#10;  M 666.91 142.80&#10;  Q 669.03 141.69 670.93 140.07&#10;  C 677.18 134.75 686.17 132.08 693.69 135.96&#10;  C 700.43 139.43 702.07 147.70 702.20 154.77&#10;  Q 702.48 170.23 702.38 188.96&#10;  Q 702.37 190.28 701.06 190.49&#10;  Q 697.37 191.10 694.41 190.45&#10;  Q 693.15 190.18 693.17 188.89&#10;  Q 693.32 173.79 692.91 157.44&#10;  C 692.70 149.46 691.78 142.16 681.71 142.52&#10;  C 676.61 142.71 672.02 146.10 668.46 149.51&#10;  A 3.12 3.12 0.0 0 0 667.50 151.76&#10;  Q 667.49 156.93 667.17 161.89&#10;  Q 666.33 174.77 667.13 187.77&#10;  Q 667.30 190.38 664.69 190.61&#10;  L 661.34 190.91&#10;  Q 658.06 191.21 658.38 187.93&#10;  Q 658.79 183.63 658.67 175.50&#10;  Q 658.38 156.46 658.13 138.46&#10;  Q 658.10 136.60 659.96 136.60&#10;  L 664.35 136.59&#10;  Q 666.62 136.59 666.41 138.85&#10;  L 666.10 142.26&#10;  A 0.55 0.55 0.0 0 0 666.91 142.80&#10;  Z"/>
<path fill="#fff7f7" d="&#10;  M 234.04 146.52&#10;  C 235.76 149.20 234.79 152.21 233.62 154.93&#10;  C 231.87 158.98 227.11 158.04 224.46 155.61&#10;  C 221.12 152.56 214.27 143.81 219.01 139.03&#10;  C 224.96 133.03 231.34 142.29 234.04 146.52&#10;  Z"/>
<path fill="#ffffff" d="&#10;  M 728.66 153.39&#10;  C 733.46 141.06 743.89 139.20 754.50 146.28&#10;  C 755.52 146.95 756.26 147.97 756.26 149.23&#10;  Q 756.24 163.75 756.25 177.19&#10;  A 1.52 1.52 0.0 0 1 755.77 178.30&#10;  C 750.45 183.18 744.40 187.37 736.81 184.29&#10;  C 728.80 181.04 727.63 173.21 727.07 165.24&#10;  Q 726.61 158.65 728.66 153.39&#10;  Z"/>
<ellipse fill="#dee5f2" cx="0.00" cy="0.00" transform="translate(258.40,154.85) rotate(-34.9)" rx="7.65" ry="1.16"/>
<path fill="#ffffff" d="&#10;  M 380.06 172.46&#10;  C 380.97 163.86 396.69 160.98 403.32 160.25&#10;  Q 404.90 160.08 404.86 161.67&#10;  Q 404.71 168.41 404.78 174.25&#10;  C 404.81 176.42 403.14 177.26 401.66 178.43&#10;  C 396.43 182.56 389.88 184.94 383.49 181.68&#10;  C 380.18 179.98 379.70 175.86 380.06 172.46&#10;  Z"/>
<path fill="#ffffff" d="&#10;  M 626.85 177.96&#10;  C 621.79 181.92 615.36 185.20 608.90 182.19&#10;  Q 605.15 180.44 604.52 176.28&#10;  Q 603.53 169.79 608.42 166.36&#10;  C 613.43 162.84 619.35 161.66 625.29 160.49&#10;  Q 627.19 160.11 629.02 160.47&#10;  Q 629.63 160.59 629.57 161.20&#10;  Q 629.00 167.10 629.36 173.67&#10;  C 629.46 175.65 628.27 176.85 626.85 177.96&#10;  Z"/>
<path fill="#dee5f2" d="&#10;  M 196.61 187.07&#10;  C 194.40 188.52 192.25 188.94 189.69 188.74&#10;  C 178.06 187.85 168.56 166.87 184.84 162.82&#10;  Q 188.78 161.85 192.07 164.04&#10;  C 199.33 168.87 207.13 180.23 196.61 187.07&#10;  Z&#10;  M 195.5168 184.8253&#10;  A 11.06 7.32 54.6 0 0 195.0767 171.5697&#10;  A 11.06 7.32 54.6 0 0 182.7032 166.7947&#10;  A 11.06 7.32 54.6 0 0 183.1433 180.0503&#10;  A 11.06 7.32 54.6 0 0 195.5168 184.8253&#10;  Z"/>
<ellipse fill="#fff7f7" cx="0.00" cy="0.00" transform="translate(189.11,175.81) rotate(54.6)" rx="11.06" ry="7.32"/>
<path fill="#dee5f2" d="&#10;  M 223.28 183.60&#10;  L 223.55 186.00&#10;  Q 223.60 186.51 223.42 186.98&#10;  C 221.75 191.47 216.75 189.23 214.11 187.28&#10;  A 1.55 1.55 0.0 0 1 214.15 184.76&#10;  Q 219.79 180.85 226.04 176.06&#10;  C 228.08 174.50 230.89 174.02 231.81 177.17&#10;  C 232.30 178.86 231.53 180.41 230.49 181.68&#10;  C 228.89 183.62 226.29 183.04 224.04 182.83&#10;  Q 223.19 182.76 223.28 183.60&#10;  Z"/>
<ellipse fill="#dee5f2" cx="0.00" cy="0.00" transform="translate(185.36,210.36) rotate(-36.7)" rx="8.82" ry="1.45"/>
</svg>